<mxfile host="app.diagrams.net" modified="2024-03-24T07:37:57.268Z" agent="Mozilla/5.0 (Windows NT 10.0; Win64; x64) AppleWebKit/537.36 (KHTML, like Gecko) Chrome/122.0.0.0 Safari/537.36" etag="M65xwIQK91kVYgeksvgr" version="23.1.5" type="device">
  <diagram name="Page-1" id="lCaPRfkSeeUZfXWN8KUL">
    <mxGraphModel dx="1493" dy="799" grid="1" gridSize="10" guides="1" tooltips="1" connect="1" arrows="1" fold="1" page="1" pageScale="1" pageWidth="850" pageHeight="1100" math="0" shadow="0">
      <root>
        <mxCell id="0" />
        <mxCell id="1" parent="0" />
      </root>
    </mxGraphModel>
  </diagram>
</mxfile>
